<?xml version="1.0" encoding="utf-8"?>
<!-- Generator: Adobe Illustrator 21.1.0, SVG Export Plug-In . SVG Version: 6.00 Build 0)  -->
<svg version="1.1" id="Layer_1" xmlns="http://www.w3.org/2000/svg" xmlns:xlink="http://www.w3.org/1999/xlink" x="0px" y="0px"
	 viewBox="0 0 32.2 32.2" style="enable-background:new 0 0 32.2 32.2;" xml:space="preserve">
<style type="text/css">
	.st0{fill:#606060;}
</style>
<g>
	<g>
		<path class="st0" d="M20.2,9.5c-0.5-2.8-3.1-4.7-5.9-4.2c0,0-0.1,0-0.1,0c-2.8,0.5-4.6,3.2-4.2,6l2,11.4c0.5,2.8,3.1,4.7,5.9,4.2
			c0,0,0,0,0.1,0c1.3-0.2,2.5-0.9,3.3-2l0.1-0.1c0.8-1.1,1.1-2.5,0.9-3.9L20.2,9.5z M11.3,11.1c-0.4-2.1,1-4.1,3.1-4.5
			c2.1-0.4,4.1,1,4.5,3.1l0.5,2.4l-7.7,1.4L11.3,11.1z M20.2,24.1c-0.6,0.8-1.5,1.3-2.4,1.5c-2.1,0.4-4.1-1-4.5-3.1c0,0,0-0.1,0-0.1
			l-1.3-7.6l7.6-1.4l1.3,7.7C21.1,22.2,20.8,23.2,20.2,24.1z"/>
	</g>
	<g>
		<rect x="13.7" y="19.6" transform="matrix(0.9851 -0.1722 0.1722 0.9851 -3.264 2.7728)" class="st0" width="1.3" height="1.3"/>
	</g>
	<g>
		<rect x="14.2" y="21.9" transform="matrix(0.9851 -0.1722 0.1722 0.9851 -3.6609 2.8862)" class="st0" width="1.3" height="1.3"/>
	</g>
	<g>
		<polygon class="st0" points="14.9,19.3 16.1,19.1 15.9,17.9 14.6,18.1 14.4,16.8 13.2,17 13.4,18.3 14.6,18.1 		"/>
	</g>
	<g>
		<rect x="14.3" y="15.4" transform="matrix(0.9851 -0.1722 0.1722 0.9851 -2.5435 2.8159)" class="st0" width="1.3" height="1.3"/>
	</g>
	<g>
		<rect x="15.3" y="20.5" transform="matrix(0.9851 -0.1722 0.1722 0.9851 -3.395 3.0552)" class="st0" width="1.3" height="1.3"/>
	</g>
	<g>
		<rect x="15.7" y="23" transform="matrix(0.9851 -0.1722 0.1722 0.9851 -3.821 3.1577)" class="st0" width="1.3" height="1.3"/>
	</g>
</g>
<g>
	<path class="st0" d="M16.1,31.5c-8.5,0-15.4-6.9-15.4-15.4c0-8.5,6.9-15.4,15.4-15.4s15.4,6.9,15.4,15.4
		C31.5,24.6,24.6,31.5,16.1,31.5z M16.1,1.7C8.1,1.7,1.7,8.1,1.7,16.1s6.5,14.4,14.4,14.4c7.9,0,14.4-6.5,14.4-14.4S24,1.7,16.1,1.7
		z"/>
</g>
<g>
	<rect x="0.7" y="15.6" transform="matrix(0.7071 -0.7071 0.7071 0.7071 -6.66 16.0786)" class="st0" width="30.7" height="1"/>
</g>
</svg>
