<?xml version="1.0" encoding="utf-8"?>
<!-- Generator: Adobe Illustrator 21.1.0, SVG Export Plug-In . SVG Version: 6.00 Build 0)  -->
<svg version="1.1" id="Layer_1" xmlns="http://www.w3.org/2000/svg" xmlns:xlink="http://www.w3.org/1999/xlink" x="0px" y="0px"
	 viewBox="0 0 32.2 32.2" style="enable-background:new 0 0 32.2 32.2;" xml:space="preserve">
<style type="text/css">
	.st0{fill:#606060;}
</style>
<g>
	<path class="st0" d="M3.3,30c-0.3,0-0.6-0.2-0.6-0.6V2.7c0-0.3,0.2-0.6,0.6-0.6s0.6,0.2,0.6,0.6v26.7C3.9,29.7,3.6,30,3.3,30z"/>
	<path class="st0" d="M6.6,18.9c-0.3,0-0.6-0.2-0.6-0.6V2.7c0-0.3,0.2-0.6,0.6-0.6h22.2c0.3,0,0.6,0.2,0.6,0.6v15.6
		c0,0.3-0.2,0.6-0.6,0.6H6.6z M23.8,17.7h4.4V3.3h-4.4V17.7z M12.7,17.7h10V3.3h-10V17.7z M7.2,17.7h4.4V3.3H7.2V17.7z"/>
	<path class="st0" d="M17.7,13.3c-1.5,0-2.8-1.2-2.8-2.8s1.2-2.8,2.8-2.8s2.8,1.2,2.8,2.8S19.3,13.3,17.7,13.3z M17.7,8.9
		c-0.9,0-1.7,0.7-1.7,1.7c0,0.9,0.7,1.7,1.7,1.7s1.7-0.7,1.7-1.7C19.4,9.6,18.6,8.9,17.7,8.9z"/>
</g>
</svg>
