<?xml version="1.0" encoding="utf-8"?>
<!-- Generator: Adobe Illustrator 21.1.0, SVG Export Plug-In . SVG Version: 6.00 Build 0)  -->
<svg version="1.1" id="Layer_1" xmlns="http://www.w3.org/2000/svg" xmlns:xlink="http://www.w3.org/1999/xlink" x="0px" y="0px"
	 viewBox="0 0 32.2 32.2" style="enable-background:new 0 0 32.2 32.2;" xml:space="preserve">
<style type="text/css">
	.st0{fill:#606060;}
</style>
<g>
	<path class="st0" d="M29.2,12l-0.9-0.7c-0.2,0.3-0.5,0.6-0.7,0.8c-0.2-0.1-0.4-0.2-0.6-0.2c-0.1,0-0.2,0-0.4,0.1l-6.6-6.5
		c0-0.1,0.1-0.2,0.1-0.3c0-0.2,0-0.3-0.1-0.5c0.5-0.6,0.8-0.9,0.8-0.9l-0.8-0.8c-0.1,0.1-0.4,0.4-1,1c-0.1,0-0.1,0-0.2,0
		c-0.7,0-1.2,0.5-1.2,1.2c0,0.2,0.1,0.4,0.2,0.6c-0.3,0.4-0.6,1-0.8,1.5c-0.6,0.1-1,0.6-1,1.2c0,0.3,0.1,0.5,0.3,0.7
		c-0.2,0.5-0.3,1.1-0.5,1.7C15.4,11,15,11.5,15,12c0,0.4,0.2,0.7,0.5,1c-0.1,0.8-0.1,1.7,0,2.5c-0.9-0.1-1.7,0-2.5,0
		c-0.2-0.3-0.6-0.5-1-0.5c-0.5,0-1,0.4-1.1,0.8c-0.6,0.1-1.2,0.3-1.7,0.5c-0.2-0.2-0.4-0.3-0.7-0.3c-0.6,0-1.1,0.5-1.2,1
		c-0.5,0.3-1.1,0.5-1.5,0.8c-0.2-0.1-0.4-0.2-0.6-0.2c-0.7,0-1.2,0.5-1.2,1.2c0,0.1,0,0.1,0,0.2c-0.6,0.5-1,0.9-1,1l0.8,0.8
		c0,0,0.3-0.3,0.9-0.8c0.2,0.1,0.3,0.1,0.5,0.1c0.1,0,0.2,0,0.3-0.1l6.5,6.6c0,0.1-0.1,0.2-0.1,0.3c0,0.2,0.1,0.4,0.2,0.6
		c-0.3,0.3-0.5,0.5-0.8,0.7l0.7,0.9c0.4-0.3,0.7-0.6,1.1-1c0,0,0.1,0,0.1,0c0.7,0,1.2-0.5,1.2-1.2c0-0.2,0-0.3-0.1-0.4
		c0.3-0.5,0.5-1,0.8-1.5c0.6-0.1,1-0.6,1-1.2c0-0.3-0.1-0.6-0.3-0.8c0.2-0.7,0.4-1.4,0.5-2c0.4-0.2,0.7-0.6,0.7-1.1
		c0-0.4-0.2-0.7-0.4-0.9c0.1-1.1,0.1-1.9,0.1-2.5c0.5,0,1.4,0,2.5-0.1c0.2,0.3,0.5,0.4,0.9,0.4c0.5,0,0.9-0.3,1.1-0.7
		c0.7-0.1,1.3-0.3,2-0.5c0.2,0.2,0.5,0.3,0.8,0.3c0.6,0,1.1-0.4,1.2-1c0.5-0.2,1-0.5,1.5-0.8c0.1,0.1,0.3,0.1,0.4,0.1
		c0.7,0,1.2-0.5,1.2-1.2c0,0,0-0.1,0-0.1C28.6,12.7,28.9,12.4,29.2,12z M24.8,14c-0.2-0.2-0.5-0.3-0.8-0.3c-0.1,0-0.2,0-0.4,0.1
		l-5.2-5c0-0.1,0.1-0.2,0.1-0.3c0-0.3-0.1-0.6-0.3-0.8c0.2-0.5,0.5-0.9,0.7-1.3c0,0,0.1,0,0.1,0c0.1,0,0.2,0,0.4-0.1l6.6,6.5
		c0,0.1-0.1,0.2-0.1,0.3c0,0.1,0,0.2,0,0.2C25.5,13.6,25.2,13.8,24.8,14z M16.6,15.5c-0.1-0.8-0.1-1.6,0-2.3l2.3,2.2
		C17.9,15.5,17.1,15.5,16.6,15.5z M20.1,14.6c-0.1,0-0.2,0-0.4,0.1l-2.3-2.3c0-0.1,0.1-0.2,0.1-0.3c0-0.4-0.2-0.7-0.5-0.9
		c0.1-0.5,0.3-1,0.4-1.5c0.1,0,0.2,0,0.3-0.1l5.2,5c0,0.1,0,0.1,0,0.2c-0.6,0.2-1.2,0.3-1.7,0.4C20.8,14.8,20.5,14.6,20.1,14.6z
		 M15.5,16.6c0,0.5,0,1.2-0.1,2.2l-2.2-2.1C14,16.6,14.7,16.6,15.5,16.6z M13.2,25.8c-0.1,0-0.2,0-0.3,0.1l-6.5-6.6
		c0-0.1,0.1-0.2,0.1-0.3c0,0,0-0.1,0-0.1c0.4-0.2,0.8-0.5,1.3-0.7c0.2,0.2,0.5,0.3,0.8,0.3c0.1,0,0.2,0,0.3-0.1l5,5.2
		c0,0.1-0.1,0.2-0.1,0.4c0,0.3,0.1,0.6,0.3,0.8c-0.2,0.4-0.4,0.7-0.6,1.1C13.3,25.9,13.2,25.8,13.2,25.8z M14.7,22.8
		c-0.1,0-0.1,0-0.2,0l-5-5.2c0-0.1,0-0.2,0.1-0.3c0.5-0.2,0.9-0.3,1.5-0.4c0.2,0.3,0.6,0.5,0.9,0.5c0.1,0,0.2,0,0.4-0.1l2.3,2.2
		c-0.1,0.1-0.1,0.3-0.1,0.4c0,0.4,0.2,0.8,0.6,1C15,21.6,14.9,22.2,14.7,22.8z"/>
</g>
</svg>
