<?xml version="1.0" encoding="utf-8"?>
<!-- Generator: Adobe Illustrator 21.1.0, SVG Export Plug-In . SVG Version: 6.00 Build 0)  -->
<svg version="1.1" id="Layer_1" xmlns="http://www.w3.org/2000/svg" xmlns:xlink="http://www.w3.org/1999/xlink" x="0px" y="0px"
	 viewBox="0 0 32.2 32.2" style="enable-background:new 0 0 32.2 32.2;" xml:space="preserve">
<style type="text/css">
	.st0{fill:#606060;}
	.st1{font-family:'MyriadPro-Regular';}
	.st2{font-size:9.2501px;}
</style>
<g>
	<g>
		<path class="st0" d="M23.3,20.3c0,4-3.2,7.2-7.2,7.2s-7.2-3.2-7.2-7.2s3.2-7.2,7.2-7.2S23.3,16.3,23.3,20.3z M25.7,20.3
			c0-5.3-4.3-9.7-9.7-9.7S6.4,15,6.4,20.3s4.3,9.7,9.7,9.7S25.7,25.6,25.7,20.3z"/>
		<path class="st0" d="M27.5,12.8c0.5,0.4,1.3,0.2,1.7-0.3c0.4-0.5,0.2-1.3-0.3-1.7L16.8,2.4c-0.4-0.3-1-0.3-1.4,0L3.3,10.9
			C2.8,11.2,2.6,12,3,12.5c0.4,0.5,1.1,0.7,1.7,0.3l11.4-8L27.5,12.8z"/>
	</g>
</g>
<text transform="matrix(1 0 0 1 10.9543 23.6046)" class="st0 st1 st2">Zn</text>
</svg>
