<?xml version="1.0" encoding="utf-8"?>
<!-- Generator: Adobe Illustrator 21.1.0, SVG Export Plug-In . SVG Version: 6.00 Build 0)  -->
<svg version="1.1" id="Layer_1" xmlns="http://www.w3.org/2000/svg" xmlns:xlink="http://www.w3.org/1999/xlink" x="0px" y="0px"
	 viewBox="0 0 32.2 32.2" style="enable-background:new 0 0 32.2 32.2;" xml:space="preserve">
<style type="text/css">
	.st0{fill:#606060;}
</style>
<g>
	<path class="st0" d="M29.4,29.6H2.8l3.8-16.7h5.1c-1-1.1-1.6-2.6-1.6-4.2c0-3.4,2.7-6.1,6.1-6.1s6.1,2.7,6.1,6.1
		c0,1.6-0.6,3-1.6,4.2h5.1L29.4,29.6z M4,28.6h24.2l-3.3-14.8h-7.2l1.3-0.9c1.4-1,2.2-2.5,2.2-4.2c0-2.8-2.3-5.1-5.1-5.1
		S11,5.9,11,8.7c0,1.7,0.8,3.3,2.2,4.2l1.3,0.9H7.3L4,28.6z M16.1,12.8c-2.3,0-4.2-1.9-4.2-4.2s1.9-4.2,4.2-4.2
		c2.3,0,4.2,1.9,4.2,4.2S18.4,12.8,16.1,12.8z M16.1,5.5c-1.8,0-3.2,1.4-3.2,3.2s1.4,3.2,3.2,3.2c1.8,0,3.2-1.4,3.2-3.2
		S17.8,5.5,16.1,5.5z"/>
</g>
</svg>
