<?xml version="1.0" encoding="utf-8"?>
<!-- Generator: Adobe Illustrator 21.1.0, SVG Export Plug-In . SVG Version: 6.00 Build 0)  -->
<svg version="1.1" id="Layer_1" xmlns="http://www.w3.org/2000/svg" xmlns:xlink="http://www.w3.org/1999/xlink" x="0px" y="0px"
	 viewBox="0 0 32.2 32.2" style="enable-background:new 0 0 32.2 32.2;" xml:space="preserve">
<style type="text/css">
	.st0{fill:#606060;}
</style>
<g>
	<g>
		<path class="st0" d="M8.8,21.8c-0.3,1.6,0.1,3.3,1,4.7l0.1,0.1c0.9,1.3,2.4,2.2,3.9,2.4c0,0,0,0,0.1,0c3.3,0.6,6.5-1.7,7.1-5
			l2.4-13.7c0.5-3.4-1.7-6.5-5-7.2c0,0-0.1,0-0.1,0c-3.3-0.6-6.5,1.7-7.1,5L8.8,21.8z M21.4,13l-9.2-1.6l0.6-2.9
			c0.4-2.5,2.9-4.2,5.4-3.8c2.5,0.4,4.2,2.9,3.8,5.4L21.4,13z M10.3,22.1l1.6-9.3l9.2,1.7l-1.6,9.2c0,0,0,0.1,0,0.1
			c-0.5,2.5-2.9,4.2-5.4,3.7c-1.2-0.2-2.2-0.8-2.9-1.8C10.4,24.7,10.1,23.4,10.3,22.1z"/>
	</g>
	<g>
		
			<rect x="17.4" y="20.3" transform="matrix(0.1722 -0.9851 0.9851 0.1722 -5.6942 35.3047)" class="st0" width="1.5" height="1.5"/>
	</g>
	<g>
		<rect x="16.8" y="23.1" transform="matrix(0.1722 -0.9851 0.9851 0.1722 -8.926 37.1005)" class="st0" width="1.5" height="1.5"/>
	</g>
	<g>
		<polygon class="st0" points="17.5,20 16,19.7 16.3,18.2 17.8,18.5 18.1,17 19.6,17.2 19.3,18.7 17.8,18.5 		"/>
	</g>
	<g>
		
			<rect x="16.7" y="15.3" transform="matrix(0.1722 -0.9851 0.9851 0.1722 -1.4075 30.4658)" class="st0" width="1.5" height="1.5"/>
	</g>
	<g>
		
			<rect x="15.5" y="21.4" transform="matrix(0.1722 -0.9851 0.9851 0.1722 -8.3135 34.3453)" class="st0" width="1.5" height="1.5"/>
	</g>
	<g>
		
			<rect x="15.1" y="24.4" transform="matrix(0.1722 -0.9851 0.9851 0.1722 -11.6601 36.395)" class="st0" width="1.5" height="1.5"/>
	</g>
</g>
</svg>
