<?xml version="1.0" encoding="utf-8"?>
<!-- Generator: Adobe Illustrator 21.1.0, SVG Export Plug-In . SVG Version: 6.00 Build 0)  -->
<svg version="1.1" id="Layer_1" xmlns="http://www.w3.org/2000/svg" xmlns:xlink="http://www.w3.org/1999/xlink" x="0px" y="0px"
	 viewBox="0 0 32.2 32.2" style="enable-background:new 0 0 32.2 32.2;" xml:space="preserve">
<style type="text/css">
	.st0{fill:#606060;}
</style>
<g>
	<g>
		<g>
			<circle class="st0" cx="16.1" cy="22.2" r="0.5"/>
			<g>
				<circle class="st0" cx="17" cy="8.8" r="0.5"/>
				<circle class="st0" cx="15.2" cy="8.8" r="0.5"/>
			</g>
			<path class="st0" d="M17.3,10.4c0.2,0.2,0.2,0.5,0,0.7L16.4,12c-0.1,0.1-0.2,0.1-0.3,0.1c-0.1,0-0.2,0-0.3-0.1l-0.9-0.9
				c-0.2-0.2-0.2-0.5,0-0.7c0.2-0.2,0.5-0.2,0.7,0l0.6,0.6l0.6-0.6C16.8,10.2,17.1,10.2,17.3,10.4z"/>
			<path class="st0" d="M17.4,15.7c0,0.1,0.1,0.2,0.1,0.4c0,0.2,0,0.4-0.1,0.5c-0.1,0.2-0.2,0.3-0.3,0.4c-0.3,0.2-0.6,0.3-0.9,0.3
				c-0.3,0-0.6-0.1-0.9-0.3c-0.1-0.1-0.3-0.3-0.3-0.4c-0.1-0.2-0.1-0.3-0.1-0.5c0-0.1,0-0.2,0.1-0.4l0.9-2.6
				c0.1-0.2,0.2-0.3,0.5-0.3c0.2,0,0.4,0.1,0.5,0.3L17.4,15.7z M16.5,16.1C16.5,16.1,16.5,16.1,16.5,16.1l-0.4-1.3L15.7,16
				c0,0,0,0,0,0.1c0,0,0,0.1,0,0.1c0,0,0,0.1,0.1,0.1c0.1,0.1,0.2,0.1,0.3,0.1c0.1,0,0.2,0,0.3-0.1C16.4,16.3,16.5,16.2,16.5,16.1
				C16.5,16.2,16.5,16.1,16.5,16.1z"/>
			<path class="st0" d="M5.3,22.8c-0.1,0-0.1,0-0.2,0c0,0,0,0,0,0c0,0,0,0-0.1,0c0,0,0,0,0,0c0,0,0,0,0,0c0,0,0,0,0,0c0,0,0,0,0,0
				c0,0,0,0,0,0c0,0,0,0,0,0c0,0-0.1-0.1-0.1-0.1c0,0,0,0,0,0c0,0,0,0,0,0c0-0.1,0-0.1,0-0.2c0-0.2-0.1-0.3-0.2-0.5
				c-0.1-0.1-0.3-0.2-0.4-0.3c-0.4-0.1-0.8-0.3-1-0.6c-0.2-0.3-0.4-0.7-0.4-1.1c0-0.2,0-0.4,0.1-0.6s0.2-0.4,0.3-0.5
				c0.1-0.2,0.2-0.3,0.2-0.5c0-0.1,0-0.3-0.1-0.4c-0.1-0.1-0.2-0.2-0.3-0.3c-0.3-0.2-0.5-0.4-0.6-0.7C2.1,16.7,2,16.4,2,16.1
				s0.1-0.6,0.2-0.8c0.1-0.3,0.4-0.5,0.6-0.7v0c0.1-0.1,0.2-0.2,0.3-0.3c0.1-0.1,0.1-0.2,0.1-0.4c0-0.2-0.1-0.4-0.2-0.5v0
				c-0.1-0.2-0.3-0.4-0.3-0.5c-0.1-0.2-0.1-0.4-0.1-0.6c0-0.4,0.1-0.8,0.4-1.1c0.1-0.2,0.3-0.3,0.4-0.4c0.2-0.1,0.4-0.2,0.6-0.2
				c0.2,0,0.3-0.1,0.4-0.3c0.1-0.1,0.2-0.3,0.2-0.5c0-0.1,0-0.2-0.1-0.3v0C4.4,9.3,4.4,9.1,4.4,8.9c0-0.3,0.1-0.7,0.3-1
				c0.2-0.3,0.4-0.5,0.8-0.6c0.2-0.1,0.4-0.1,0.7-0.1c0.1,0,0.1,0,0.2,0l0,0c0,0,0,0,0.1,0c0.2,0,0.4-0.1,0.5-0.2
				C7,6.8,7.1,6.6,7.1,6.4c0,0,0,0,0-0.1c0-0.1,0-0.1,0-0.2c0-0.2,0.1-0.5,0.1-0.7C7.4,5.2,7.5,5,7.6,4.9C8,4.6,8.4,4.4,8.8,4.4
				c0.2,0,0.5,0,0.7,0.1c0.1,0,0.2,0.1,0.3,0.1c0.2,0,0.3-0.1,0.5-0.2c0.1-0.1,0.2-0.3,0.3-0.4c0.1-0.4,0.3-0.8,0.6-1
				c0.3-0.2,0.7-0.4,1.1-0.4c0.2,0,0.4,0,0.6,0.1c0.2,0.1,0.4,0.2,0.5,0.3v0c0.2,0.1,0.3,0.2,0.5,0.2c0.1,0,0.3,0,0.4-0.1
				c0.1-0.1,0.2-0.2,0.3-0.3l0,0c0.2-0.3,0.4-0.5,0.7-0.6C15.5,2.1,15.8,2,16.1,2c0.3,0,0.6,0.1,0.8,0.2c0.3,0.1,0.5,0.4,0.7,0.6
				c0.1,0.1,0.2,0.2,0.3,0.3c0.1,0.1,0.2,0.1,0.4,0.1c0.2,0,0.4-0.1,0.5-0.2c0.2-0.1,0.4-0.3,0.5-0.3c0.2-0.1,0.4-0.1,0.6-0.1
				c0.4,0,0.8,0.1,1.1,0.4c0.3,0.2,0.5,0.6,0.6,1l0,0c0,0.2,0.1,0.3,0.3,0.4c0.1,0.1,0.3,0.2,0.5,0.2c0.1,0,0.2,0,0.3-0.1
				c0.2-0.1,0.5-0.1,0.7-0.1c0.3,0,0.7,0.1,1,0.3c0.3,0.2,0.5,0.4,0.6,0.8C25,5.7,25,5.9,25,6.1c0,0.1,0,0.1,0,0.2v0c0,0,0,0,0,0.1
				c0,0.2,0.1,0.4,0.2,0.5c0.1,0.1,0.3,0.2,0.5,0.2c0,0,0,0,0.1,0l0,0c0.1,0,0.1,0,0.2,0c0.2,0,0.5,0.1,0.7,0.1
				c0.2,0.1,0.4,0.2,0.5,0.4c0.3,0.3,0.5,0.7,0.5,1.2c0,0.2,0,0.5-0.1,0.7c0,0.1-0.1,0.2-0.1,0.3c0,0.2,0.1,0.3,0.2,0.5
				c0.1,0.1,0.3,0.2,0.4,0.3c0.4,0.1,0.8,0.3,1,0.6c0.2,0.3,0.4,0.7,0.4,1.1c0,0.2,0,0.4-0.1,0.6c-0.1,0.2-0.2,0.4-0.3,0.5h0
				c-0.1,0.2-0.2,0.3-0.2,0.5c0,0.1,0,0.3,0.1,0.4c0.1,0.1,0.2,0.2,0.3,0.3v0c0.3,0.2,0.5,0.4,0.6,0.7c0.1,0.3,0.2,0.5,0.2,0.8
				c0,0.3-0.1,0.6-0.2,0.8c-0.1,0.3-0.4,0.5-0.6,0.7c-0.1,0.1-0.2,0.2-0.3,0.3c-0.1,0.1-0.1,0.2-0.1,0.4c0,0.2,0.1,0.4,0.2,0.5
				c0.1,0.2,0.3,0.3,0.3,0.5c0.1,0.2,0.1,0.4,0.1,0.6c0,0.4-0.1,0.8-0.4,1.1c-0.1,0.2-0.3,0.3-0.4,0.4c-0.2,0.1-0.4,0.2-0.6,0.2
				c-0.2,0-0.3,0.1-0.4,0.3s-0.2,0.3-0.2,0.5c0,0.3-0.2,0.5-0.5,0.5h0c-0.1,0-0.1,0-0.2,0l-1.7-0.7h0c0,0,0,0.1,0,0.1l0,0
				c-0.1,0.3-0.2,0.6-0.4,0.9c-0.2,0.3-0.4,0.5-0.6,0.6c-0.4,0.3-1,0.5-1.4,0.5c-0.1,0-0.1,0-0.2,0c-0.1,0.1-0.1,0.2-0.2,0.3
				c-0.6,0.7-1.3,1.4-2.1,1.9v0.6c0,0.5-0.2,0.9-0.5,1.2c-0.2,0.2-0.5,0.4-0.7,0.4v0.5H21c0.3,0,0.5,0.2,0.5,0.5
				c0,0.3-0.2,0.5-0.5,0.5h-3c-0.3,0-0.5-0.2-0.5-0.5c0-0.3,0.2-0.5,0.5-0.5h0.2v-0.5c-0.3-0.1-0.5-0.2-0.7-0.4
				c-0.2-0.2-0.3-0.4-0.4-0.6c-0.3,0-0.6,0-0.9,0c-0.3,0-0.6,0-0.9-0.1c-0.1,0.2-0.2,0.5-0.4,0.6c-0.2,0.2-0.5,0.4-0.7,0.4v0.5h0.2
				c0.3,0,0.5,0.2,0.5,0.5c0,0.3-0.2,0.5-0.5,0.5h-3c-0.3,0-0.5-0.2-0.5-0.5c0-0.3,0.2-0.5,0.5-0.5h1.9v-0.5
				c-0.3-0.1-0.5-0.2-0.7-0.4c-0.3-0.3-0.5-0.7-0.5-1.2v-0.6c-0.8-0.5-1.5-1.1-2.1-1.9c-0.1-0.1-0.1-0.2-0.2-0.3c-0.1,0-0.1,0-0.2,0
				c-0.4,0-0.7-0.1-1.1-0.3c-0.4-0.2-0.7-0.5-0.9-0.9c-0.2-0.3-0.3-0.6-0.4-0.9l0,0c0,0,0-0.1,0-0.1L5.3,22.8z M9.1,15
				c0.4-0.4,0.8-0.8,1.3-1.1l-3.5-3c-0.2-0.2-0.2-0.5-0.1-0.7C6.9,10,7.2,10,7.4,10.2l3.8,3.2c0,0,0,0,0.1,0c0.4-0.2,0.7-0.5,1-0.9
				h0L9.6,7.8C9.4,7.5,9.5,7.2,9.8,7.1C10,7,10.3,7,10.4,7.3l2.4,4.2c0.1-0.4,0.2-0.7,0.2-1.1V8.1c0-0.4,0.1-0.8,0.2-1.1
				c0.2-0.4,0.4-0.7,0.7-0.9c0.6-0.5,1.3-0.8,2.2-0.8c1.3,0,2.4,0.7,2.8,1.8c0.2,0.3,0.2,0.7,0.2,1.1v2.2c0,0.4,0.1,0.8,0.2,1.1
				l2.4-4.2C21.9,7,22.2,7,22.4,7.1c0.2,0.1,0.3,0.4,0.2,0.7l-2.7,4.7c0.3,0.3,0.6,0.7,1,0.9c0,0,0,0,0,0c0,0,0,0,0.1,0l3.8-3.2
				c0.2-0.2,0.5-0.1,0.7,0.1c0.2,0.2,0.1,0.5-0.1,0.7l-3.5,3c0.5,0.3,0.9,0.7,1.3,1.1l3.2-1.2c0.2-0.1,0.5,0,0.6,0.3
				c0.1,0.2,0,0.5-0.3,0.6l-2.9,1c0.1,0.2,0.3,0.4,0.4,0.6c0.2,0.4,0.4,0.8,0.6,1.2v0l1.7,0c0.3,0,0.5,0.2,0.5,0.5
				c0,0.3-0.2,0.5-0.5,0.5l-1.4,0c0.2,0.7,0.3,1.4,0.3,2.1c0,0.2,0,0.3,0,0.5l1.5,0.6c0.1-0.1,0.1-0.3,0.2-0.4
				c0.1-0.2,0.3-0.3,0.4-0.4c0.2-0.1,0.4-0.2,0.6-0.2c0.2,0,0.3-0.1,0.4-0.3c0.1-0.1,0.2-0.3,0.2-0.5c0-0.1,0-0.2,0-0.3
				c0-0.1-0.1-0.2-0.1-0.2c-0.3-0.3-0.4-0.7-0.4-1.1c0,0,0,0,0,0c0-0.3,0.1-0.6,0.2-0.8c0.1-0.3,0.4-0.5,0.6-0.7
				c0.1-0.1,0.2-0.2,0.3-0.3c0.1-0.1,0.1-0.2,0.1-0.4c0-0.1,0-0.3-0.1-0.4c-0.1-0.1-0.2-0.2-0.3-0.3c-0.3-0.2-0.5-0.4-0.6-0.7
				c-0.1-0.3-0.2-0.5-0.2-0.8c0-0.4,0.1-0.8,0.4-1.1v0c0.1-0.1,0.1-0.2,0.1-0.2c0-0.1,0-0.2,0-0.3c0-0.2-0.1-0.3-0.2-0.5
				c-0.1-0.1-0.2-0.2-0.4-0.3c-0.4-0.1-0.7-0.3-1-0.6c-0.2-0.3-0.4-0.7-0.4-1.1c0-0.2,0-0.5,0.1-0.7v0c0-0.1,0.1-0.2,0.1-0.3
				c0-0.2,0-0.3-0.1-0.4c-0.1-0.1-0.2-0.2-0.3-0.3c-0.1,0-0.2-0.1-0.3-0.1c0,0,0,0-0.1,0h0c-0.1,0-0.1,0-0.2,0
				c-0.5,0-0.9-0.2-1.2-0.5c-0.3-0.3-0.5-0.7-0.5-1.2c0-0.1,0-0.1,0-0.2c0,0,0,0,0-0.1c0-0.1,0-0.2-0.1-0.3c0-0.1-0.1-0.2-0.2-0.2
				c-0.1-0.1-0.3-0.2-0.5-0.2c-0.1,0-0.2,0-0.3,0.1l0,0c-0.2,0.1-0.5,0.1-0.7,0.1c-0.4,0-0.8-0.1-1.1-0.4c-0.3-0.2-0.5-0.6-0.6-1
				c0-0.2-0.1-0.3-0.3-0.4c-0.1-0.1-0.3-0.2-0.5-0.2c-0.1,0-0.2,0-0.3,0c-0.1,0-0.2,0.1-0.2,0.1c-0.3,0.3-0.7,0.4-1.1,0.4
				c-0.3,0-0.6-0.1-0.8-0.2c-0.3-0.1-0.5-0.4-0.6-0.6c-0.1-0.1-0.2-0.2-0.3-0.3C16.3,3,16.2,3,16.1,3c-0.1,0-0.3,0-0.4,0.1
				c-0.1,0.1-0.2,0.2-0.3,0.3C15.3,3.7,15,3.9,14.8,4c-0.3,0.1-0.5,0.2-0.8,0.2c0,0,0,0,0,0c-0.4,0-0.8-0.1-1.1-0.4
				c-0.1-0.1-0.2-0.1-0.2-0.1c-0.1,0-0.2,0-0.3,0c-0.2,0-0.3,0.1-0.5,0.2c-0.1,0.1-0.2,0.2-0.3,0.4c-0.1,0.4-0.3,0.7-0.6,1
				c-0.3,0.2-0.7,0.4-1.1,0.4c-0.2,0-0.5,0-0.7-0.1l0,0C9,5.4,8.9,5.4,8.8,5.4c-0.2,0-0.3,0-0.4,0.1C8.3,5.6,8.2,5.7,8.1,5.8
				c0,0.1-0.1,0.2-0.1,0.3c0,0,0,0,0,0.1v0c0,0.1,0,0.1,0,0.2c0,0.5-0.2,0.9-0.5,1.2C7.3,7.9,6.8,8.1,6.4,8.1c-0.1,0-0.1,0-0.2,0
				c0,0,0,0-0.1,0c-0.1,0-0.2,0-0.3,0.1c-0.1,0-0.2,0.1-0.2,0.2C5.4,8.5,5.4,8.7,5.4,8.9c0,0.1,0,0.2,0.1,0.3
				c0.1,0.2,0.1,0.5,0.1,0.7c0,0.4-0.1,0.8-0.4,1.1c-0.1,0.2-0.3,0.3-0.4,0.4c-0.2,0.1-0.4,0.2-0.6,0.2c-0.2,0-0.3,0.1-0.4,0.3
				c-0.1,0.1-0.2,0.3-0.2,0.5c0,0.1,0,0.2,0,0.3c0,0.1,0.1,0.2,0.1,0.2c0.3,0.3,0.4,0.7,0.4,1.1c0,0.3-0.1,0.6-0.2,0.8
				c-0.1,0.3-0.4,0.5-0.6,0.6c-0.1,0.1-0.2,0.2-0.3,0.3C3,15.8,3,16,3,16.1s0,0.3,0.1,0.4c0.1,0.1,0.2,0.2,0.3,0.3
				c0.3,0.2,0.5,0.4,0.6,0.7c0.1,0.3,0.2,0.5,0.2,0.8c0,0.4-0.1,0.8-0.4,1.1c-0.1,0.1-0.1,0.2-0.1,0.2c0,0.1,0,0.2,0,0.3
				c0,0.2,0.1,0.3,0.2,0.5c0.1,0.1,0.2,0.2,0.4,0.3c0.4,0.1,0.7,0.3,1,0.6c0.1,0.1,0.2,0.3,0.2,0.4l1.5-0.6c0-0.2,0-0.3,0-0.5
				c0-0.7,0.1-1.4,0.3-2.1l-1.4,0c-0.3,0-0.5-0.2-0.5-0.5c0-0.3,0.2-0.5,0.5-0.5l1.7,0v0c0.2-0.4,0.4-0.8,0.6-1.2
				c0.1-0.2,0.2-0.4,0.4-0.6l-2.9-1.1c-0.2-0.1-0.4-0.4-0.3-0.6c0.1-0.2,0.4-0.4,0.6-0.3L9.1,15z M24.2,22c0.1-0.4,0.1-0.9,0.1-1.4
				c0-1.4-0.4-2.7-1.1-3.8c-0.7-1.1-1.7-2.1-2.9-2.7c-0.7-0.4-1.2-1-1.6-1.6c-0.4-0.6-0.6-1.4-0.6-2.2V8.1c0-0.3-0.1-0.5-0.2-0.7
				c-0.1-0.2-0.3-0.4-0.4-0.6c-0.4-0.4-0.9-0.6-1.5-0.6c-0.9,0-1.7,0.5-2,1.2c-0.1,0.2-0.2,0.5-0.2,0.7v2.2c0,0.8-0.2,1.6-0.6,2.2
				c-0.4,0.7-0.9,1.2-1.6,1.6c-1.2,0.7-2.2,1.6-2.9,2.7c-0.7,1.1-1.1,2.4-1.1,3.8c0,0.5,0,0.9,0.1,1.4c0,0,0,0,0,0
				c0.1,0.2,0.1,0.4,0.2,0.6c0.1,0.2,0.2,0.3,0.4,0.4c0.1,0.1,0.3,0.2,0.5,0.2c-0.2-0.5-0.4-1-0.5-1.5c-0.1-0.3,0.1-0.5,0.4-0.6
				c0.3-0.1,0.5,0.1,0.6,0.4c0.2,0.9,0.5,1.7,1.1,2.4c0.4,0.5,0.8,1,1.4,1.3c0.1-0.1,0.2-0.2,0.4-0.2c0.3,0,0.5,0.2,0.5,0.5v1.4
				c0,0.2,0.1,0.4,0.2,0.5c0.1,0.1,0.2,0.1,0.2,0.2c0.1,0,0.2,0.1,0.3,0.1c0.2,0,0.4-0.1,0.5-0.2c0.1-0.1,0.2-0.3,0.2-0.5v-0.4
				c0-0.3,0.2-0.5,0.5-0.5c0.3,0,0.5,0.2,0.5,0.5v0c0.3,0,0.5,0,0.8,0c0.3,0,0.5,0,0.8,0v0c0-0.3,0.2-0.5,0.5-0.5
				c0.3,0,0.5,0.2,0.5,0.5v0.4c0,0.2,0.1,0.4,0.2,0.5c0.1,0.1,0.3,0.2,0.5,0.2c0.2,0,0.4-0.1,0.5-0.2c0.1-0.1,0.2-0.3,0.2-0.5v-1.4
				c0-0.3,0.2-0.5,0.5-0.5c0.2,0,0.3,0.1,0.4,0.2c0.5-0.4,1-0.8,1.4-1.3c0.3-0.4,0.5-0.7,0.7-1.1c0.2-0.4,0.3-0.8,0.4-1.3
				c0.1-0.3,0.3-0.4,0.6-0.4c0.3,0.1,0.4,0.3,0.4,0.6c-0.1,0.5-0.3,1-0.5,1.5c0.1,0,0.2-0.1,0.2-0.1c0.2-0.1,0.4-0.3,0.6-0.5
				C24.1,22.5,24.1,22.3,24.2,22C24.2,22,24.2,22,24.2,22z"/>
		</g>
	</g>
</g>
</svg>
