<?xml version="1.0" encoding="utf-8"?>
<!-- Generator: Adobe Illustrator 21.1.0, SVG Export Plug-In . SVG Version: 6.00 Build 0)  -->
<svg version="1.1" id="Layer_1" xmlns="http://www.w3.org/2000/svg" xmlns:xlink="http://www.w3.org/1999/xlink" x="0px" y="0px"
	 viewBox="0 0 85.5 81.8" style="enable-background:new 0 0 85.5 81.8;" xml:space="preserve">
<g>
	<path d="M25.8,61.5c0.5,0,0.9,0.4,0.9,0.9c0,0.5-0.4,0.9-0.9,0.9h-1.2c0.2,0.4,0.4,0.7,0.6,1c0.4,0.5,0.9,0.8,1.6,0.8H55
		c0.7,0,1.2-0.3,1.6-0.8c0.2-0.3,0.5-0.6,0.6-1h-17c-0.5,0-0.9-0.4-0.9-0.9c0-0.5,0.4-0.9,0.9-0.9h19.1c0.1,0,0.3-0.5,0.6-1
		c0.1-0.2,0.1-0.3,0.2-0.5l3.6-7.6c0,0,0,0,0-0.1c0-0.1-0.1-0.2-0.1-0.3l0,0c-0.1-0.1-0.3-0.3-0.4-0.3c-0.1,0-0.2-0.1-0.2-0.1h-44
		c-0.1,0-0.1,0-0.2,0v0c-0.2,0.1-0.3,0.2-0.4,0.3c-0.1,0.1-0.1,0.2-0.1,0.3c0,0,0,0.1,0,0.1h0l3.1,7.6c0.1,0.2,0.1,0.2,0.1,0.3
		c0.2,0.6,0.5,1.2,0.7,1.2L25.8,61.5C25.8,61.5,25.8,61.5,25.8,61.5z M27.6,45.5c0.5,0,0.8,0.4,0.8,0.8s-0.4,0.8-0.8,0.8
		c-0.5,0-0.8-0.4-0.8-0.8S27.1,45.5,27.6,45.5z M28.2,42.3c0.5,0,0.8,0.4,0.8,0.8c0,0.5-0.4,0.8-0.8,0.8c-0.5,0-0.8-0.4-0.8-0.8
		C27.4,42.7,27.7,42.3,28.2,42.3z M24.9,43.5c0.5,0,0.8,0.4,0.8,0.8s-0.4,0.8-0.8,0.8S24,44.9,24,44.4C24,43.9,24.4,43.5,24.9,43.5z
		 M37.1,46.9c0.4-1.9,1.3-4,3-5.7c1.3-1.4,3.1-2.5,5.4-3.1c4-1,5.5-0.8,6.9-0.6c0.4,0,0.8,0.1,1.3,0.1c0.5,0,1.5-0.4,2.6-0.9l0,0
		c-0.9-0.9-2-1.8-3.1-2.5c-1.3-0.8-2.7-1.5-4.1-1.8C43.4,31,37.6,34,35.6,35.1c-0.4,0.2-0.7,0.4-0.9,0.4c-0.3,0.1-4.2,2.1-8,4.3
		c-2.3,1.3-4.4,2.7-5.6,3.7C20.3,44.1,20,45,19.8,46c-0.2,1.3,0.1,2.7,0.5,3.8l0,0h38.8c0.3-0.5,0.6-1.1,0.9-1.7
		c0.3-0.7,0.5-1.6,0.6-2.4c0.1-0.7,0-1.5-0.3-2.4c-0.2-0.7-0.5-1.4-0.8-2.1c-0.3,0.3-0.6,0.6-0.7,0.8c-0.1,0.1-0.2,0.5-0.4,0.9l0,0
		c-0.2,0.6-0.4,1.4-0.5,2.1c0,0.2-0.1,0.4-0.1,0.7c0,0.4,0,0.8,0,1.3l-1.7,0c0-0.5,0-1,0-1.4c0-0.4,0.1-0.7,0.1-1
		c0.2-0.8,0.3-1.6,0.6-2.3v0c0.2-0.6,0.4-1.2,0.7-1.5c0.6-0.7,2.3-2.2,3.4-3.1L60,36.7c-0.9,0.6-2,1.2-3.1,1.7
		c-1.3,0.6-2.6,1.1-3.4,1c-0.6,0-1-0.1-1.4-0.1c-1.3-0.1-2.6-0.3-6.3,0.6c-2,0.5-3.5,1.4-4.6,2.6c-1.4,1.5-2.2,3.3-2.5,4.9
		L37.1,46.9z M57.9,35.9c0.4-0.2,0.8-0.5,1.2-0.7l0,0l0.7-0.5l2.1-1.4c0-0.1,0-0.2-0.1-0.3v0c-0.1-0.8,0.1-1.5,0.5-2.1
		c0.4-0.6,1.1-1,1.9-1.1l0,0c0.8-0.1,1.5,0.1,2.1,0.6l0,0c0.6,0.4,1,1.1,1.1,1.9l0,0c0,0.1,0,0.3,0,0.4c0.3,0.1,0.6,0.3,0.8,0.6
		c0.4,0.4,0.7,1,0.8,1.7c0.1,0.8-0.1,1.5-0.5,2.1c-0.4,0.6-1.1,1-1.9,1.1c-0.6,0.1-1.1,0-1.6-0.2c-0.2-0.1-0.5-0.2-0.6-0.4l-1.6,0.9
		c-0.4,0.3-1.2,0.9-2,1.6c0.5,0.9,0.9,1.9,1.2,2.8c0.3,1.1,0.5,2.2,0.4,3.1c-0.1,1.1-0.4,2-0.7,2.9c-0.1,0.4-0.3,0.7-0.5,1.1h1.7
		c0.3,0,0.7,0.1,1,0.2c0.4,0.2,0.8,0.5,1.1,0.8l0,0l0,0c0.3,0.4,0.5,0.9,0.5,1.4c0,0.3-0.1,0.5-0.2,0.8l-3.5,7.6
		c-0.1,0.1-0.1,0.3-0.2,0.5c-0.5,1.1-0.9,2-2.2,2h-0.2c-0.3,0.8-0.7,1.5-1.2,2.1c-0.7,0.8-1.7,1.3-2.9,1.3H26.9
		c-1.2,0-2.2-0.5-2.9-1.3c-0.5-0.6-0.9-1.3-1.2-2.1H22c-1.4,0-1.8-1.1-2.3-2.3l-0.1-0.3l-3.1-7.6l0,0h0c-0.1-0.2-0.2-0.5-0.2-0.7
		c0-0.5,0.2-1,0.5-1.4c0.3-0.4,0.7-0.7,1.1-0.8l0,0v0c0.2-0.1,0.3-0.1,0.5-0.1c-0.4-1.2-0.6-2.7-0.4-4.1c0.2-1.4,0.7-2.7,1.8-3.6
		c1.3-1.1,3.6-2.5,5.9-3.9c3.9-2.3,8.1-4.4,8.5-4.5c0,0,0.2-0.1,0.5-0.2c2.1-1.1,8.4-4.3,14.7-2.8c1.6,0.4,3.2,1.1,4.7,2.1
		C55.5,33.6,56.8,34.7,57.9,35.9L57.9,35.9z M39.2,16.5c-0.2-0.4-0.1-0.9,0.3-1.2c0.4-0.2,0.9-0.1,1.2,0.3c0,0,1.6,2.7,1.8,4.4
		c0.2,2.2-0.8,3.4-1.6,4.5c-0.4,0.5-0.8,1-0.8,1.4c0,0.3,0,0.6,0,1c0,0.3,0.1,0.7,0.1,0.9c0.1,0.5-0.2,0.9-0.7,1
		c-0.5,0.1-0.9-0.2-1-0.7c-0.1-0.3-0.1-0.7-0.2-1.1c0-0.4-0.1-0.9,0-1.3c0.1-0.9,0.6-1.6,1.2-2.3c0.6-0.8,1.4-1.8,1.3-3.3
		C40.7,18.8,39.2,16.5,39.2,16.5L39.2,16.5L39.2,16.5z M33.8,22.3c0,0.5-0.3,0.9-0.8,0.9c-0.5,0-0.9-0.3-0.9-0.8
		c-0.2-2.2,0.5-3.5,1.6-4.2c0.7-0.5,1.6-0.6,2.3-0.4c0.8,0.1,1.5,0.6,2,1.2l0,0c0.7,0.9,0.9,2.2,0.1,3.7c-0.3,0.6-0.9,1.1-1.6,1.7
		c-1,0.8-2.1,1.8-2.2,3c-0.2,2.3,0.4,3.9,0.4,3.9c0.2,0.4-0.1,0.9-0.5,1.1c-0.4,0.2-0.9-0.1-1.1-0.5c0,0-0.7-2-0.6-4.6
		c0.1-2,1.6-3.2,2.8-4.2c0.5-0.5,1-0.9,1.2-1.2c0.4-0.8,0.4-1.4,0.1-1.8l0,0l0,0c-0.2-0.3-0.6-0.5-0.9-0.5s-0.8,0-1.1,0.2
		C34,20.1,33.7,20.9,33.8,22.3L33.8,22.3z M62.1,35.3l0.7,1.2l1.4-0.8l0.7-0.4l0.4,0.7c0.1,0.2,0.3,0.3,0.5,0.4
		c0.2,0.1,0.4,0.1,0.6,0.1c0.3,0,0.5-0.2,0.7-0.4c0.2-0.2,0.3-0.5,0.2-0.9c0-0.3-0.2-0.5-0.3-0.7c-0.2-0.2-0.4-0.3-0.6-0.3l-1-0.1
		l0.3-1c0-0.1,0-0.2,0-0.3c0-0.1,0-0.2,0-0.3l0,0c0-0.3-0.2-0.6-0.4-0.8l0,0c-0.2-0.2-0.5-0.3-0.8-0.2l0,0c-0.3,0-0.5,0.2-0.7,0.4
		c-0.2,0.2-0.3,0.5-0.2,0.9l0,0c0,0.1,0,0.2,0.1,0.2c0,0.1,0.1,0.1,0.1,0.2l0.4,0.7l-0.7,0.5L62.1,35.3L62.1,35.3z M65.7,32.5
		L65.7,32.5 M67.4,32.3L67.4,32.3"/>
</g>
</svg>
