<?xml version="1.0" encoding="utf-8"?>
<!-- Generator: Adobe Illustrator 21.1.0, SVG Export Plug-In . SVG Version: 6.00 Build 0)  -->
<svg version="1.1" id="Layer_1" xmlns="http://www.w3.org/2000/svg" xmlns:xlink="http://www.w3.org/1999/xlink" x="0px" y="0px"
	 viewBox="0 0 85.5 81.8" style="enable-background:new 0 0 85.5 81.8;" xml:space="preserve">
<g>
	<g>
		<g>
			<circle cx="42.8" cy="52" r="0.9"/>
			<g>
				<circle cx="44.4" cy="27.7" r="0.9"/>
				<circle cx="41.1" cy="27.7" r="0.9"/>
			</g>
			<path d="M45,30.6c0.3,0.3,0.3,0.9,0,1.2l-1.6,1.6c-0.2,0.2-0.4,0.3-0.6,0.3c-0.2,0-0.4-0.1-0.6-0.3l-1.6-1.6
				c-0.3-0.3-0.3-0.9,0-1.2c0.3-0.3,0.9-0.3,1.2,0l1,1l1-1C44.1,30.3,44.7,30.3,45,30.6z"/>
			<path d="M45.1,40.3c0.1,0.2,0.1,0.4,0.1,0.7c0,0.3-0.1,0.7-0.2,0.9c-0.1,0.3-0.4,0.5-0.6,0.8c-0.5,0.4-1.1,0.5-1.6,0.5
				c-0.6,0-1.1-0.2-1.6-0.5c-0.3-0.2-0.5-0.5-0.6-0.8c-0.2-0.3-0.2-0.6-0.2-0.9c0-0.2,0-0.4,0.1-0.7l1.6-4.7
				c0.1-0.4,0.4-0.6,0.8-0.6c0.4,0,0.7,0.2,0.8,0.6L45.1,40.3z M43.5,40.9c0,0,0-0.1,0-0.1l-0.7-2.3L42,40.8c0,0,0,0.1,0,0.1
				c0,0.1,0,0.1,0,0.2c0,0.1,0.1,0.1,0.2,0.2c0.1,0.1,0.3,0.2,0.6,0.2c0.2,0,0.4-0.1,0.6-0.2c0.1-0.1,0.1-0.1,0.2-0.2
				C43.5,41,43.5,41,43.5,40.9z"/>
			<path d="M23.2,53c-0.1,0-0.2,0.1-0.3,0.1c0,0-0.1,0-0.1,0c0,0-0.1,0-0.1,0c0,0,0,0-0.1,0c0,0,0,0-0.1,0c0,0,0,0-0.1,0
				c0,0,0,0-0.1,0c0,0,0,0-0.1,0c0,0,0,0-0.1-0.1c-0.1-0.1-0.2-0.1-0.2-0.2c0,0,0,0,0-0.1c0,0,0,0,0-0.1c0-0.1-0.1-0.2-0.1-0.3
				c0-0.3-0.1-0.6-0.3-0.9c-0.2-0.2-0.5-0.4-0.8-0.5c-0.8-0.2-1.4-0.6-1.8-1.1c-0.4-0.5-0.6-1.2-0.6-1.9c0-0.4,0.1-0.7,0.2-1.1
				s0.3-0.7,0.6-1c0.2-0.3,0.3-0.6,0.3-0.9c0-0.2-0.1-0.5-0.2-0.7c-0.1-0.2-0.3-0.4-0.5-0.5c-0.5-0.3-0.9-0.7-1.1-1.2
				c-0.3-0.5-0.4-1-0.4-1.5c0-0.5,0.1-1,0.4-1.5s0.6-0.9,1.1-1.2v0c0.2-0.1,0.4-0.3,0.5-0.5c0.1-0.2,0.2-0.4,0.2-0.7
				c0-0.3-0.1-0.6-0.3-0.9v0c-0.3-0.3-0.5-0.6-0.6-1c-0.1-0.3-0.2-0.7-0.2-1.1c0-0.7,0.2-1.4,0.6-1.9c0.2-0.3,0.5-0.5,0.8-0.7
				c0.3-0.2,0.6-0.3,1-0.4c0.3-0.1,0.6-0.3,0.8-0.5s0.3-0.6,0.3-0.9c0-0.2,0-0.4-0.1-0.5v0c-0.2-0.4-0.3-0.8-0.3-1.2
				c0-0.6,0.2-1.2,0.5-1.7c0.3-0.5,0.8-0.9,1.4-1.1c0.4-0.2,0.8-0.3,1.2-0.3c0.1,0,0.2,0,0.3,0l0,0c0,0,0.1,0,0.1,0
				c0.4,0,0.7-0.2,1-0.4c0.3-0.3,0.4-0.6,0.4-1c0,0,0-0.1,0-0.1c0-0.1,0-0.2,0-0.3c0-0.4,0.1-0.9,0.3-1.2c0.2-0.4,0.4-0.7,0.7-1
				c0.6-0.6,1.3-0.9,2.2-0.9c0.4,0,0.8,0.1,1.2,0.3c0.2,0.1,0.4,0.1,0.5,0.1c0.3,0,0.6-0.1,0.9-0.3c0.2-0.2,0.4-0.5,0.5-0.8
				c0.2-0.7,0.6-1.4,1.1-1.8c0.5-0.4,1.2-0.6,1.9-0.6c0.4,0,0.7,0.1,1.1,0.2c0.3,0.1,0.7,0.3,1,0.6v0c0.3,0.2,0.6,0.3,0.9,0.3
				c0.2,0,0.5-0.1,0.7-0.2c0.2-0.1,0.4-0.3,0.5-0.5l0,0c0.3-0.5,0.7-0.9,1.2-1.1c0.5-0.3,1-0.4,1.5-0.4c0.5,0,1,0.1,1.5,0.4
				c0.5,0.3,0.9,0.6,1.2,1.1c0.1,0.2,0.3,0.4,0.5,0.5c0.2,0.1,0.4,0.2,0.7,0.2c0.3,0,0.6-0.1,0.9-0.3c0.3-0.3,0.6-0.5,1-0.6
				c0.3-0.1,0.7-0.2,1.1-0.2c0.7,0,1.4,0.2,1.9,0.6c0.5,0.4,1,1,1.1,1.8l0,0c0.1,0.3,0.3,0.6,0.5,0.8c0.2,0.2,0.6,0.3,0.9,0.3
				c0.2,0,0.4,0,0.6-0.1c0.4-0.2,0.8-0.3,1.2-0.3c0.6,0,1.2,0.2,1.7,0.5c0.5,0.3,0.9,0.8,1.1,1.4c0.2,0.4,0.3,0.8,0.3,1.2
				c0,0.1,0,0.2,0,0.3v0c0,0,0,0.1,0,0.1c0,0.4,0.2,0.7,0.4,1c0.3,0.3,0.6,0.4,1,0.4c0,0,0.1,0,0.1,0l0,0c0.1,0,0.2,0,0.3,0
				c0.4,0,0.9,0.1,1.2,0.3c0.4,0.2,0.7,0.4,1,0.7c0.6,0.6,0.9,1.3,0.9,2.2c0,0.4-0.1,0.8-0.3,1.2c-0.1,0.2-0.1,0.4-0.1,0.5
				c0,0.3,0.1,0.6,0.3,0.9c0.2,0.2,0.5,0.4,0.8,0.5c0.8,0.2,1.4,0.6,1.8,1.1c0.4,0.5,0.6,1.2,0.6,1.9c0,0.4-0.1,0.7-0.2,1.1
				c-0.1,0.3-0.3,0.7-0.6,1h0c-0.2,0.3-0.3,0.6-0.3,0.9c0,0.2,0.1,0.5,0.2,0.7c0.1,0.2,0.3,0.4,0.5,0.5v0c0.5,0.3,0.9,0.7,1.1,1.2
				c0.3,0.5,0.4,1,0.4,1.5c0,0.5-0.1,1-0.4,1.5c-0.3,0.5-0.6,0.9-1.1,1.2c-0.2,0.1-0.4,0.3-0.5,0.5s-0.2,0.4-0.2,0.7
				c0,0.3,0.1,0.6,0.3,0.9c0.3,0.3,0.5,0.6,0.6,1c0.1,0.3,0.2,0.7,0.2,1.1c0,0.7-0.2,1.4-0.6,1.9c-0.2,0.3-0.5,0.5-0.8,0.7
				c-0.3,0.2-0.6,0.3-1,0.4c-0.3,0.1-0.6,0.3-0.8,0.5c-0.2,0.2-0.3,0.6-0.3,0.9c0,0.5-0.4,0.9-0.9,0.9h0c-0.1,0-0.2,0-0.3-0.1
				l-3.1-1.2h0c0,0.1,0,0.1,0,0.2l0,0c-0.1,0.6-0.4,1.2-0.7,1.6c-0.3,0.5-0.7,0.8-1.1,1.1c-0.8,0.6-1.7,0.9-2.6,0.9
				c-0.1,0-0.2,0-0.3,0c-0.1,0.2-0.2,0.3-0.3,0.5c-1,1.3-2.3,2.5-3.7,3.4v1c0,0.9-0.3,1.6-0.9,2.2c-0.4,0.4-0.8,0.6-1.3,0.8v1h3.4
				c0.5,0,0.9,0.4,0.9,0.9c0,0.5-0.4,0.9-0.9,0.9h-5.4c-0.5,0-0.9-0.4-0.9-0.9c0-0.5,0.4-0.9,0.9-0.9h0.3v-1c-0.5-0.1-1-0.4-1.3-0.8
				c-0.3-0.3-0.6-0.7-0.7-1.1c-0.5,0.1-1.1,0.1-1.6,0.1c-0.6,0-1.1,0-1.6-0.1c-0.2,0.4-0.4,0.8-0.7,1.1c-0.4,0.4-0.8,0.6-1.3,0.8v1
				h0.3c0.5,0,0.9,0.4,0.9,0.9c0,0.5-0.4,0.9-0.9,0.9H34c-0.5,0-0.9-0.4-0.9-0.9c0-0.5,0.4-0.9,0.9-0.9h3.4v-1
				c-0.5-0.1-1-0.4-1.3-0.8c-0.6-0.6-0.9-1.3-0.9-2.2v-1c-1.4-0.9-2.7-2.1-3.7-3.4c-0.1-0.2-0.2-0.3-0.3-0.5c-0.1,0-0.2,0-0.3,0
				c-0.6,0-1.3-0.2-2-0.5c-0.6-0.3-1.2-0.8-1.7-1.5c-0.3-0.5-0.5-1-0.7-1.6l0,0c0-0.1,0-0.1,0-0.2L23.2,53z M30.2,39
				c0.7-0.7,1.4-1.4,2.3-2l-6.4-5.4c-0.4-0.3-0.4-0.8-0.1-1.2c0.3-0.4,0.8-0.4,1.2-0.1l6.8,5.7c0,0,0.1,0,0.1-0.1
				c0.7-0.4,1.3-1,1.8-1.6h0L31,25.9c-0.2-0.4-0.1-0.9,0.3-1.2c0.4-0.2,0.9-0.1,1.2,0.3l4.3,7.5c0.2-0.6,0.3-1.3,0.3-2v-4
				c0-0.7,0.2-1.4,0.4-2.1c0.3-0.6,0.7-1.2,1.2-1.7c1-0.9,2.4-1.5,3.9-1.5c2.3,0,4.3,1.3,5.1,3.2c0.3,0.6,0.4,1.3,0.4,2.1v4
				c0,0.7,0.1,1.4,0.3,2L53,25c0.2-0.4,0.8-0.6,1.2-0.3c0.4,0.2,0.6,0.8,0.3,1.2l-4.9,8.4c0.5,0.6,1.1,1.2,1.8,1.6c0,0,0,0,0,0
				c0,0,0.1,0,0.1,0.1l6.8-5.7c0.4-0.3,0.9-0.3,1.2,0.1c0.3,0.4,0.3,0.9-0.1,1.2l-6.4,5.4c0.8,0.6,1.6,1.3,2.3,2l5.8-2.1
				c0.4-0.2,0.9,0.1,1.1,0.5c0.2,0.4-0.1,0.9-0.5,1.1l-5.2,1.9c0.2,0.3,0.5,0.7,0.7,1c0.4,0.7,0.8,1.4,1.1,2.2v0l3.1,0
				c0.5,0,0.9,0.4,0.9,0.9c0,0.5-0.4,0.9-0.9,0.9l-2.5,0c0.3,1.2,0.5,2.5,0.5,3.8c0,0.3,0,0.6,0,0.9l2.6,1c0.1-0.3,0.3-0.5,0.4-0.8
				c0.2-0.3,0.5-0.5,0.8-0.7c0.3-0.2,0.6-0.3,1-0.4c0.3-0.1,0.6-0.3,0.8-0.5c0.2-0.2,0.3-0.6,0.3-0.9c0-0.2,0-0.3-0.1-0.5
				c-0.1-0.2-0.1-0.3-0.3-0.4c-0.5-0.6-0.8-1.3-0.8-2c0,0,0,0,0,0c0-0.5,0.1-1,0.4-1.5c0.3-0.5,0.6-0.9,1.1-1.2
				c0.2-0.1,0.4-0.3,0.5-0.5c0.1-0.2,0.2-0.4,0.2-0.7c0-0.2-0.1-0.5-0.2-0.7c-0.1-0.2-0.3-0.4-0.5-0.5c-0.5-0.3-0.9-0.7-1.1-1.2
				c-0.3-0.5-0.4-1-0.4-1.5c0-0.7,0.3-1.5,0.8-2.1v0c0.1-0.1,0.2-0.3,0.3-0.4c0.1-0.2,0.1-0.3,0.1-0.5c0-0.3-0.1-0.6-0.3-0.9
				c-0.2-0.2-0.4-0.4-0.8-0.5c-0.7-0.2-1.3-0.6-1.8-1.1c-0.4-0.5-0.7-1.2-0.7-1.9c0-0.4,0.1-0.8,0.3-1.2v0c0.1-0.2,0.1-0.4,0.1-0.6
				c0-0.3-0.1-0.5-0.2-0.8c-0.2-0.2-0.4-0.4-0.6-0.5c-0.2-0.1-0.3-0.1-0.5-0.1c0,0-0.1,0-0.1,0h0c-0.1,0-0.2,0-0.3,0
				c-0.9,0-1.6-0.4-2.2-0.9c-0.6-0.6-0.9-1.3-0.9-2.2c0-0.1,0-0.2,0-0.3c0,0,0-0.1,0-0.1c0-0.2,0-0.4-0.1-0.5
				c-0.1-0.2-0.2-0.3-0.3-0.4c-0.3-0.3-0.6-0.4-1-0.4c-0.2,0-0.4,0-0.6,0.1l0,0c-0.4,0.2-0.8,0.2-1.2,0.2c-0.7,0-1.4-0.2-1.9-0.7
				c-0.5-0.4-1-1-1.1-1.8c-0.1-0.4-0.3-0.6-0.5-0.8c-0.2-0.2-0.6-0.3-0.9-0.3c-0.2,0-0.3,0-0.5,0.1c-0.2,0.1-0.3,0.1-0.4,0.3
				c-0.6,0.5-1.3,0.8-2.1,0.8c-0.5,0-1-0.1-1.5-0.4c-0.5-0.3-0.9-0.6-1.2-1.1c-0.1-0.2-0.3-0.4-0.5-0.5c-0.2-0.1-0.4-0.2-0.7-0.2
				s-0.5,0.1-0.7,0.2c-0.2,0.1-0.4,0.3-0.5,0.5c-0.3,0.5-0.7,0.9-1.2,1.1c-0.5,0.3-1,0.4-1.5,0.4c0,0,0,0,0,0c-0.7,0-1.5-0.3-2-0.8
				c-0.1-0.1-0.3-0.2-0.4-0.3c-0.2-0.1-0.3-0.1-0.5-0.1c-0.3,0-0.6,0.1-0.9,0.3c-0.2,0.2-0.4,0.4-0.5,0.8c-0.2,0.7-0.6,1.3-1.1,1.8
				c-0.5,0.4-1.2,0.7-1.9,0.7c-0.4,0-0.8-0.1-1.2-0.2l0,0c-0.2-0.1-0.4-0.1-0.6-0.1c-0.3,0-0.5,0.1-0.8,0.2
				c-0.2,0.2-0.4,0.4-0.5,0.6c-0.1,0.2-0.1,0.3-0.1,0.5c0,0,0,0.1,0,0.1v0c0,0.1,0,0.2,0,0.3c0,0.9-0.4,1.6-0.9,2.2
				c-0.6,0.6-1.3,0.9-2.2,0.9c-0.1,0-0.2,0-0.3,0c0,0-0.1,0-0.1,0c-0.2,0-0.4,0-0.5,0.1c-0.2,0.1-0.3,0.2-0.4,0.3
				c-0.3,0.3-0.4,0.6-0.4,1c0,0.2,0,0.4,0.1,0.6c0.2,0.4,0.3,0.8,0.3,1.2c0,0.7-0.2,1.4-0.7,1.9c-0.2,0.3-0.5,0.5-0.8,0.7
				c-0.3,0.2-0.6,0.3-1,0.4c-0.4,0.1-0.6,0.3-0.8,0.5c-0.2,0.2-0.3,0.6-0.3,0.9c0,0.2,0,0.3,0.1,0.5c0.1,0.2,0.1,0.3,0.3,0.4
				c0.5,0.6,0.8,1.3,0.8,2.1c0,0.5-0.1,1-0.4,1.5c-0.3,0.5-0.6,0.9-1.1,1.2c-0.2,0.1-0.4,0.3-0.5,0.5c-0.1,0.2-0.2,0.4-0.2,0.7
				s0.1,0.5,0.2,0.7c0.1,0.2,0.3,0.4,0.5,0.5c0.5,0.3,0.9,0.7,1.1,1.2c0.3,0.5,0.4,1,0.4,1.5c0,0.7-0.3,1.5-0.8,2.1
				c-0.1,0.1-0.2,0.3-0.3,0.4c-0.1,0.2-0.1,0.3-0.1,0.5c0,0.3,0.1,0.6,0.3,0.9c0.2,0.2,0.4,0.4,0.8,0.5c0.7,0.2,1.3,0.6,1.8,1.1
				c0.2,0.2,0.3,0.5,0.4,0.8l2.6-1c0-0.3,0-0.6,0-0.9c0-1.3,0.2-2.6,0.5-3.8l-2.5,0c-0.5,0-0.9-0.4-0.9-0.9c0-0.5,0.4-0.9,0.9-0.9
				l3.1,0v0c0.3-0.7,0.7-1.5,1.1-2.2c0.2-0.4,0.4-0.7,0.7-1l-5.3-1.9c-0.4-0.2-0.7-0.7-0.5-1.1c0.2-0.4,0.7-0.7,1.1-0.5L30.2,39z
				 M57.4,51.6c0.2-0.8,0.2-1.6,0.2-2.5c0-2.5-0.7-4.8-1.9-6.8c-1.2-2-3-3.7-5.1-4.9c-1.2-0.7-2.2-1.7-2.9-2.9
				c-0.7-1.2-1.1-2.5-1.1-4v-4c0-0.5-0.1-0.9-0.3-1.3c-0.2-0.4-0.5-0.8-0.8-1.1c-0.7-0.6-1.7-1.1-2.7-1.1c-1.6,0-3,0.9-3.5,2.2
				c-0.2,0.4-0.3,0.9-0.3,1.3v4c0,1.4-0.4,2.8-1.1,4c-0.7,1.2-1.7,2.2-2.9,2.9c-2.1,1.2-3.9,2.9-5.1,4.9c-1.2,2-1.9,4.3-1.9,6.8
				c0,0.9,0.1,1.7,0.2,2.5c0,0,0,0,0,0c0.1,0.4,0.3,0.8,0.4,1.1c0.2,0.3,0.4,0.5,0.7,0.7c0.3,0.2,0.5,0.3,0.8,0.4
				c-0.4-0.9-0.7-1.8-0.9-2.7c-0.1-0.5,0.2-0.9,0.7-1c0.5-0.1,0.9,0.2,1,0.7c0.3,1.6,1,3,1.9,4.3c0.7,0.9,1.5,1.7,2.4,2.4
				c0.2-0.2,0.4-0.4,0.7-0.4c0.5,0,0.9,0.4,0.9,0.9v2.6c0,0.4,0.2,0.7,0.4,1c0.1,0.1,0.3,0.2,0.4,0.3c0.2,0.1,0.3,0.1,0.5,0.1
				c0.4,0,0.7-0.2,1-0.4s0.4-0.6,0.4-1v-0.7c0-0.5,0.4-0.9,0.9-0.9s0.9,0.4,0.9,0.9v0c0.5,0.1,1,0.1,1.5,0.1c0.5,0,1,0,1.5-0.1v0
				c0-0.5,0.4-0.9,0.9-0.9c0.5,0,0.9,0.4,0.9,0.9v0.7c0,0.4,0.2,0.7,0.4,1c0.3,0.3,0.6,0.4,1,0.4c0.4,0,0.7-0.2,1-0.4
				c0.3-0.3,0.4-0.6,0.4-1V58c0-0.5,0.4-0.9,0.9-0.9c0.3,0,0.6,0.2,0.7,0.4c0.9-0.7,1.8-1.5,2.4-2.4c0.5-0.6,0.9-1.3,1.2-2
				c0.3-0.7,0.6-1.5,0.7-2.3c0.1-0.5,0.5-0.8,1-0.7c0.5,0.1,0.8,0.5,0.7,1c-0.2,0.9-0.5,1.9-0.9,2.7c0.1,0,0.3-0.1,0.4-0.2
				c0.4-0.2,0.7-0.5,1-0.9C57.1,52.4,57.3,52,57.4,51.6C57.4,51.6,57.4,51.6,57.4,51.6z"/>
		</g>
	</g>
</g>
</svg>
