<?xml version="1.0" encoding="utf-8"?>
<!-- Generator: Adobe Illustrator 21.1.0, SVG Export Plug-In . SVG Version: 6.00 Build 0)  -->
<svg version="1.1" id="Layer_1" xmlns="http://www.w3.org/2000/svg" xmlns:xlink="http://www.w3.org/1999/xlink" x="0px" y="0px"
	 viewBox="0 0 85.5 81.8" style="enable-background:new 0 0 85.5 81.8;" xml:space="preserve">
<g>
	<path d="M65.8,33.5c-0.7-1.6-2.5-3-5.5-4c0,0,0,0,0,0c-1.6-3.2-7.7-3.9-8.6-4c-0.2,0-0.7-0.1-1.6-0.3c0,0,0,0,0-0.1
		c-0.2-1.5-1.7-2.8-4.3-3.5c-5.2-1.5-12.1-1-15.8,1.2c-1.8,1.1-2.5,2.3-2.7,3.3c-1.8,0.6-3.6,1.6-4.2,3.3c-0.1,0.4-0.2,0.8-0.2,1.2
		c-2.3,1.2-3.5,2.6-3.6,4.2c-0.1,1.7,1.2,3.2,2.4,4c0.5,1.1,2.5,6.3,4.3,17c0,0,0,0.1,0,0.1c0.1,0.5,1.7,4.8,15,5.1c1,0,1.9,0,2.7,0
		c10,0,14.6-1.3,15.6-4.3c0.2-0.7,0.5-2,0.8-3.7c0.9-4.6,2.5-12.2,4.5-14.6c0,0,0,0,0,0c0,0,0,0,0-0.1C66.1,36.6,66.4,35,65.8,33.5z
		 M58.3,29.6c0.2,0.2,0.4,0.4,0.5,0.6c0.3,0.7,0.2,1.5-0.4,2.5c-0.5,0.8-1.7,1.5-3.3,2.1c-6.7,1.6-12.6,0.2-17-1.5
		c1.8,0.3,3.6,0.4,5.4,0.4c3.7,0,7.4-0.5,10.5-1.5c0,0,0,0,0,0c0,0,0,0,0,0l1.6-0.6c0,0,0,0,0.1,0C56.7,31.2,57.9,30.6,58.3,29.6z
		 M49.4,27.3c0.1-0.1,0.2-0.3,0.3-0.4c1.1,0.2,1.7,0.3,1.8,0.3c0,0,0.1,0,0.1,0c0.6,0.1,1.5,0.2,2.5,0.4c0,0,0,0,0.1,0
		c1.1,0.3,2.2,0.7,2.5,1.1c0.1,0.1,0.1,0.1,0.2,0.2c0,0-0.1,0.5-1.7,1.2l-1.5,0.5c-0.8,0.1-6.9,0.5-11.8-1c2.5,0.1,4.9-0.4,6.5-1.4
		C48.7,28,49.1,27.6,49.4,27.3z M30.9,24.3c3.2-2,9.7-2.4,14.4-1c2.2,0.6,3,1.6,3.1,2.1c0.1,0.6-0.7,1.2-1.1,1.5
		c-1.2,0.7-3.1,1.1-5.1,1.1c0.8-0.1,1.5-0.3,2-0.6c1-0.6,1.1-1.5,1-1.8c-0.1-0.5-0.4-1.4-2.1-1.9c-2.3-0.7-5.3-0.4-6.9,0.6
		c-1.4,0.8-1.4,1.8-1.4,2.3c0.1,0.4,0.3,0.8,0.6,1.2c2,2.5,5.6,3.7,9.1,4.3c-3.6,0.1-7.3-0.3-10.4-1.3c-3-0.9-5-2.3-5.2-3.7
		C28.8,25.8,30.1,24.8,30.9,24.3z M40.1,26.2c0,0-0.1,0-0.1,0c0.5-0.4,1.4-0.6,2.3-0.5c0.6,0,0.9,0.2,1.1,0.3c0,0-0.1,0-0.1,0.1
		C42.7,26.3,41.2,26.5,40.1,26.2z M38.1,26.6c0.2,0.7,0.9,1,1.5,1.2c0,0,0.1,0,0.1,0c-0.5-0.1-0.9-0.2-1.3-0.3
		c-1.2-0.4-1.8-0.9-1.8-1.1c0-0.1,0.2-0.4,0.6-0.6c0.3-0.2,0.8-0.4,1.3-0.5C38.1,25.7,38,26.1,38.1,26.6z M24.7,30
		c0.3-0.8,1.4-1.5,2.7-2c0.3,0.9,1,1.8,2.1,2.6c0,0,0,0,0,0c0.3,0.2,5,4.1,12.3,5.8c-7.6-0.2-14.2-1.8-16.1-3.9
		C24.8,31.5,24.5,30.7,24.7,30z M27.8,55.5C26.6,48,25,42.6,24.1,39.9c0,0,0,0,0,0c0.5,0.2,1,0.4,1.6,0.6c0.4,1.5,3.2,11.2,3.5,16.3
		C28.2,56.1,27.9,55.6,27.8,55.5z M53.1,58.8c0.9-6.9,2.3-14.5,2.8-16.6c1-0.2,2-0.4,3-0.6c-0.8,2.4-2.5,8-3.6,16.6
		C54.6,58.4,53.9,58.6,53.1,58.8z M51.4,59c-0.7,0.1-1.4,0.1-2.2,0.2c0.6-4.7,1.6-14.2,1.8-16.5c1-0.1,2-0.2,3.1-0.3
		C53.6,45.2,52.3,52.4,51.4,59z M47.6,59.3c-0.7,0-1.4,0-2.2,0.1c0.2-3.4,0.5-13.6,0.6-16.4c0.9,0,2.1,0,3.4-0.1
		C49.1,45.6,48.2,54.9,47.6,59.3z M43.8,59.3c-0.7,0-1.4,0-2.1,0c0-2.6-0.3-13-0.4-16.4c1,0,2.1,0.1,3.2,0.1
		C44.2,48.1,44,56.6,43.8,59.3z M39.6,42.8c0.2,6.1,0.4,14.4,0.4,16.5c-0.7,0-1.3-0.1-2-0.1c0-3-1.1-13.4-1.4-16.6
		C37.6,42.6,38.6,42.7,39.6,42.8z M35,42.4c0.4,4.3,1.4,13.8,1.4,16.6c-0.7-0.1-1.4-0.2-2-0.3c0.1-3.4-1.7-13.2-2.3-16.7
		C33,42.1,34,42.2,35,42.4z M30.4,41.7c0.5,2.6,2.4,13,2.4,16.6c-0.8-0.2-1.4-0.4-2-0.6c0.1-4.5-2.3-13.4-3.2-16.6
		C28.5,41.3,29.4,41.5,30.4,41.7z M58.7,52.6c-0.3,1.6-0.6,3-0.8,3.6c-0.2,0.5-0.5,0.9-1,1.2c1.3-9.7,3.4-15.4,3.8-16.4
		c0.4-0.1,0.7-0.3,1.1-0.4C60.5,44.2,59.4,49.5,58.7,52.6z M63.6,37.3c-1.6,2.4-9.1,4-18.7,3.9c-1.4,0-2.9-0.1-4.3-0.1
		c-0.1,0-0.1,0-0.2,0c0,0,0,0-0.1,0c-3.2-0.2-6.2-0.5-8.9-1C31.3,40.1,31.2,40,31,40c-3.5-0.6-6.3-1.5-8.1-2.6
		c-0.7-0.4-1.9-1.5-1.9-2.6c0.1-0.9,0.9-1.8,2.4-2.6c0.2,0.5,0.6,0.9,1,1.4c2.7,3,11.3,4.4,18.6,4.4c0,0,0,0,0,0
		c3.3,0,14.1-0.3,16.7-4.4c0.5-0.8,0.7-1.5,0.8-2.2c1.9,0.8,3.1,1.7,3.6,2.7C64.6,35.1,64.4,36.1,63.6,37.3z"/>
</g>
</svg>
